<svg width="1200" height="630" xmlns="http://www.w3.org/2000/svg">
  <defs>
    <linearGradient id="grad1" x1="0%" y1="0%" x2="100%" y2="100%">
      <stop offset="0%" style="stop-color:#003057;stop-opacity:1" />
      <stop offset="100%" style="stop-color:#0052A3;stop-opacity:1" />
    </linearGradient>
    <linearGradient id="grad2" x1="0%" y1="0%" x2="100%" y2="0%">
      <stop offset="0%" style="stop-color:#FF6B35;stop-opacity:0.15" />
      <stop offset="100%" style="stop-color:#FF6B35;stop-opacity:0" />
    </linearGradient>
  </defs>
  <rect width="1200" height="630" fill="url(#grad1)"/>
  <rect width="1200" height="630" fill="url(#grad2)"/>
  <circle cx="80" cy="80" r="140" fill="#FF6B35" opacity="0.08"/>
  <circle cx="1120" cy="550" r="180" fill="#FF6B35" opacity="0.08"/>
  <g transform="translate(80, 160)">
    <rect x="0" y="0" width="220" height="280" rx="12" fill="#FFFFFF" opacity="0.12"/>
    <text x="110" y="80" font-family="Arial, sans-serif" font-size="72" font-weight="bold" fill="#FF6B35" text-anchor="middle" opacity="0.9">$</text>
    <rect x="30" y="110" width="160" height="8" rx="4" fill="#FFFFFF" opacity="0.3"/>
    <rect x="30" y="130" width="120" height="8" rx="4" fill="#FFFFFF" opacity="0.3"/>
    <rect x="30" y="150" width="140" height="8" rx="4" fill="#FFFFFF" opacity="0.3"/>
    <rect x="30" y="185" width="70" height="30" rx="6" fill="#FF6B35" opacity="0.7"/>
    <rect x="110" y="185" width="70" height="30" rx="6" fill="#FFFFFF" opacity="0.15"/>
    <rect x="30" y="230" width="70" height="30" rx="6" fill="#FFFFFF" opacity="0.15"/>
    <rect x="110" y="230" width="70" height="30" rx="6" fill="#FF6B35" opacity="0.5"/>
  </g>
  <text x="370" y="230" font-family="Arial, sans-serif" font-size="48" font-weight="bold" fill="#FFFFFF">Concierge Medicine</text>
  <text x="370" y="290" font-family="Arial, sans-serif" font-size="48" font-weight="bold" fill="#FFFFFF">Income Guide</text>
  <text x="370" y="350" font-family="Arial, sans-serif" font-size="26" fill="#B3D4FF">How much do concierge physicians</text>
  <text x="370" y="385" font-family="Arial, sans-serif" font-size="26" fill="#B3D4FF">make in South Florida?</text>
  <text x="370" y="540" font-family="Arial, sans-serif" font-size="18" font-weight="600" fill="#FF6B35">BENEFIQUE TAX &amp; ACCOUNTING</text>
  <text x="370" y="565" font-family="Arial, sans-serif" font-size="14" fill="#B3D4FF">Davie, FL | Broward County</text>
</svg>