<svg width="1200" height="630" xmlns="http://www.w3.org/2000/svg">
  <defs>
    <linearGradient id="grad1" x1="0%" y1="0%" x2="100%" y2="100%">
      <stop offset="0%" style="stop-color:#003057;stop-opacity:1" />
      <stop offset="100%" style="stop-color:#0052A3;stop-opacity:1" />
    </linearGradient>
    <linearGradient id="grad2" x1="0%" y1="0%" x2="100%" y2="0%">
      <stop offset="0%" style="stop-color:#FF6B35;stop-opacity:0.15" />
      <stop offset="100%" style="stop-color:#FF6B35;stop-opacity:0" />
    </linearGradient>
  </defs>
  <rect width="1200" height="630" fill="url(#grad1)"/>
  <rect width="1200" height="630" fill="url(#grad2)"/>
  <circle cx="80" cy="80" r="140" fill="#FF6B35" opacity="0.08"/>
  <circle cx="1120" cy="550" r="180" fill="#FF6B35" opacity="0.08"/>
  <g transform="translate(60, 170)">
    <rect x="0" y="0" width="120" height="270" rx="10" fill="#FFFFFF" opacity="0.1"/>
    <text x="60" y="35" font-family="Arial, sans-serif" font-size="13" font-weight="bold" fill="#FFFFFF" text-anchor="middle" opacity="0.7">INSURANCE</text>
    <rect x="15" y="55" width="90" height="180" rx="6" fill="#FFFFFF" opacity="0.08"/>
    <rect x="25" y="70" width="70" height="6" rx="3" fill="#FFFFFF" opacity="0.3"/>
    <rect x="25" y="85" width="50" height="6" rx="3" fill="#FFFFFF" opacity="0.3"/>
    <rect x="25" y="100" width="60" height="6" rx="3" fill="#FFFFFF" opacity="0.3"/>
    <rect x="25" y="125" width="70" height="20" rx="4" fill="#FFFFFF" opacity="0.15"/>
    <text x="60" y="140" font-family="Arial, sans-serif" font-size="11" fill="#FFFFFF" text-anchor="middle" opacity="0.5">2,500 pts</text>
    <rect x="25" y="160" width="70" height="20" rx="4" fill="#FFFFFF" opacity="0.15"/>
    <text x="60" y="175" font-family="Arial, sans-serif" font-size="11" fill="#FFFFFF" text-anchor="middle" opacity="0.5">$300K</text>
    <text x="60" y="260" font-family="Arial, sans-serif" font-size="14" fill="#B3D4FF" text-anchor="middle">VS</text>
  </g>
  <g transform="translate(200, 170)">
    <rect x="0" y="0" width="120" height="270" rx="10" fill="#FF6B35" opacity="0.2"/>
    <text x="60" y="35" font-family="Arial, sans-serif" font-size="13" font-weight="bold" fill="#FF6B35" text-anchor="middle">CONCIERGE</text>
    <rect x="15" y="55" width="90" height="180" rx="6" fill="#FF6B35" opacity="0.1"/>
    <rect x="25" y="70" width="70" height="6" rx="3" fill="#FF6B35" opacity="0.4"/>
    <rect x="25" y="85" width="50" height="6" rx="3" fill="#FF6B35" opacity="0.4"/>
    <rect x="25" y="100" width="60" height="6" rx="3" fill="#FF6B35" opacity="0.4"/>
    <rect x="25" y="125" width="70" height="20" rx="4" fill="#FF6B35" opacity="0.25"/>
    <text x="60" y="140" font-family="Arial, sans-serif" font-size="11" fill="#FFFFFF" text-anchor="middle" opacity="0.8">300 pts</text>
    <rect x="25" y="160" width="70" height="20" rx="4" fill="#FF6B35" opacity="0.25"/>
    <text x="60" y="175" font-family="Arial, sans-serif" font-size="11" fill="#FFFFFF" text-anchor="middle" opacity="0.8">$800K+</text>
  </g>
  <text x="400" y="230" font-family="Arial, sans-serif" font-size="46" font-weight="bold" fill="#FFFFFF">Concierge vs Insurance</text>
  <text x="400" y="290" font-family="Arial, sans-serif" font-size="46" font-weight="bold" fill="#FFFFFF">Financial Comparison</text>
  <text x="400" y="350" font-family="Arial, sans-serif" font-size="26" fill="#B3D4FF">Side-by-side revenue, overhead,</text>
  <text x="400" y="385" font-family="Arial, sans-serif" font-size="26" fill="#B3D4FF">and take-home analysis</text>
  <text x="400" y="540" font-family="Arial, sans-serif" font-size="18" font-weight="600" fill="#FF6B35">BENEFIQUE TAX &amp; ACCOUNTING</text>
  <text x="400" y="565" font-family="Arial, sans-serif" font-size="14" fill="#B3D4FF">Davie, FL | Broward County</text>
</svg>