<svg width="1200" height="630" xmlns="http://www.w3.org/2000/svg">
  <defs>
    <linearGradient id="grad1" x1="0%" y1="0%" x2="100%" y2="100%">
      <stop offset="0%" style="stop-color:#003057;stop-opacity:1" />
      <stop offset="100%" style="stop-color:#0052A3;stop-opacity:1" />
    </linearGradient>
    <linearGradient id="grad2" x1="0%" y1="0%" x2="100%" y2="0%">
      <stop offset="0%" style="stop-color:#FF6B35;stop-opacity:0.15" />
      <stop offset="100%" style="stop-color:#FF6B35;stop-opacity:0" />
    </linearGradient>
  </defs>
  <rect width="1200" height="630" fill="url(#grad1)"/>
  <rect width="1200" height="630" fill="url(#grad2)"/>
  <circle cx="80" cy="80" r="140" fill="#FF6B35" opacity="0.08"/>
  <circle cx="1120" cy="550" r="180" fill="#FF6B35" opacity="0.08"/>
  <g transform="translate(80, 160)">
    <rect x="0" y="0" width="220" height="280" rx="12" fill="#FFFFFF" opacity="0.12"/>
    <rect x="25" y="25" width="170" height="12" rx="4" fill="#FF6B35" opacity="0.7"/>
    <rect x="25" y="55" width="80" height="40" rx="6" fill="#FFFFFF" opacity="0.15"/>
    <text x="65" y="82" font-family="Arial, sans-serif" font-size="18" font-weight="bold" fill="#FFFFFF" text-anchor="middle" opacity="0.7">LLC</text>
    <rect x="115" y="55" width="80" height="40" rx="6" fill="#FFFFFF" opacity="0.15"/>
    <text x="155" y="82" font-family="Arial, sans-serif" font-size="18" font-weight="bold" fill="#FFFFFF" text-anchor="middle" opacity="0.7">EHR</text>
    <rect x="25" y="110" width="170" height="8" rx="4" fill="#FFFFFF" opacity="0.25"/>
    <rect x="25" y="130" width="130" height="8" rx="4" fill="#FFFFFF" opacity="0.25"/>
    <rect x="25" y="160" width="170" height="50" rx="8" fill="#FF6B35" opacity="0.2"/>
    <text x="110" y="192" font-family="Arial, sans-serif" font-size="24" font-weight="bold" fill="#FF6B35" text-anchor="middle">$100K-$175K</text>
    <rect x="25" y="225" width="80" height="35" rx="6" fill="#FFFFFF" opacity="0.1"/>
    <rect x="115" y="225" width="80" height="35" rx="6" fill="#FFFFFF" opacity="0.1"/>
  </g>
  <text x="370" y="230" font-family="Arial, sans-serif" font-size="48" font-weight="bold" fill="#FFFFFF">Startup Cost Guide:</text>
  <text x="370" y="290" font-family="Arial, sans-serif" font-size="48" font-weight="bold" fill="#FFFFFF">Concierge Practice</text>
  <text x="370" y="350" font-family="Arial, sans-serif" font-size="26" fill="#B3D4FF">Every cost, benchmark, and checklist</text>
  <text x="370" y="385" font-family="Arial, sans-serif" font-size="26" fill="#B3D4FF">for launching in South Florida</text>
  <text x="370" y="540" font-family="Arial, sans-serif" font-size="18" font-weight="600" fill="#FF6B35">BENEFIQUE TAX &amp; ACCOUNTING</text>
  <text x="370" y="565" font-family="Arial, sans-serif" font-size="14" fill="#B3D4FF">Davie, FL | Broward County</text>
</svg>