<svg viewBox="0 0 1200 600" xmlns="http://www.w3.org/2000/svg">
  <!-- Background -->
  <rect width="1200" height="600" fill="#f0f7ff"/>
  
  <!-- Title area background -->
  <rect y="0" width="1200" height="120" fill="#1a73e8" opacity="0.1"/>
  
  <!-- Location boxes -->
  <!-- Location 1 -->
  <rect x="100" y="150" width="300" height="380" fill="white" stroke="#1a73e8" stroke-width="2" rx="8"/>
  <rect x="100" y="150" width="300" height="50" fill="#1a73e8" rx="8"/>
  <text x="250" y="185" font-size="20" font-weight="bold" fill="white" text-anchor="middle">Location 1</text>
  
  <text x="120" y="230" font-size="14" fill="#666">Revenue:</text>
  <text x="280" y="230" font-size="14" font-weight="bold" fill="#1a73e8" text-anchor="end">$180K</text>
  
  <text x="120" y="260" font-size="14" fill="#666">Margin:</text>
  <text x="280" y="260" font-size="14" font-weight="bold" fill="#34a853" text-anchor="end">34%</text>
  
  <text x="120" y="290" font-size="14" fill="#666">Profit:</text>
  <text x="280" y="290" font-size="14" font-weight="bold" fill="#34a853" text-anchor="end">$62K</text>
  
  <line x1="110" y1="320" x2="390" y2="320" stroke="#e0e0e0"/>
  
  <text x="120" y="350" font-size="12" fill="#999">Status: ✅ Healthy</text>
  <text x="120" y="375" font-size="12" fill="#999">Clear visibility</text>
  <text x="120" y="400" font-size="12" fill="#999">Consistent performance</text>
  <text x="120" y="425" font-size="12" fill="#999">Good allocation</text>
  <text x="120" y="450" font-size="12" fill="#999">Ready to expand</text>
  
  <!-- Location 2 -->
  <rect x="450" y="150" width="300" height="380" fill="white" stroke="#1a73e8" stroke-width="2" rx="8"/>
  <rect x="450" y="150" width="300" height="50" fill="#1a73e8" rx="8"/>
  <text x="600" y="185" font-size="20" font-weight="bold" fill="white" text-anchor="middle">Location 2</text>
  
  <text x="470" y="230" font-size="14" fill="#666">Revenue:</text>
  <text x="630" y="230" font-size="14" font-weight="bold" fill="#1a73e8" text-anchor="end">$220K</text>
  
  <text x="470" y="260" font-size="14" fill="#666">Margin:</text>
  <text x="630" y="260" font-size="14" font-weight="bold" fill="#34a853" text-anchor="end">31%</text>
  
  <text x="470" y="290" font-size="14" fill="#666">Profit:</text>
  <text x="630" y="290" font-size="14" font-weight="bold" fill="#34a853" text-anchor="end">$68K</text>
  
  <line x1="460" y1="320" x2="740" y2="320" stroke="#e0e0e0"/>
  
  <text x="470" y="350" font-size="12" fill="#999">Status: ⭐ Star Location</text>
  <text x="470" y="375" font-size="12" fill="#999">Highest revenue</text>
  <text x="470" y="400" font-size="12" fill="#999">Strong performance</text>
  <text x="470" y="425" font-size="12" fill="#999">Growth opportunity</text>
  <text x="470" y="450" font-size="12" fill="#999">Invest here first</text>
  
  <!-- Location 3 (Problem location) -->
  <rect x="800" y="150" width="300" height="380" fill="white" stroke="#ea4335" stroke-width="2" rx="8"/>
  <rect x="800" y="150" width="300" height="50" fill="#ea4335" rx="8"/>
  <text x="950" y="185" font-size="20" font-weight="bold" fill="white" text-anchor="middle">Location 3</text>
  
  <text x="820" y="230" font-size="14" fill="#666">Revenue:</text>
  <text x="980" y="230" font-size="14" font-weight="bold" fill="#1a73e8" text-anchor="end">$150K</text>
  
  <text x="820" y="260" font-size="14" fill="#666">Margin:</text>
  <text x="980" y="260" font-size="14" font-weight="bold" fill="#ea4335" text-anchor="end">26%</text>
  
  <text x="820" y="290" font-size="14" fill="#666">Profit:</text>
  <text x="980" y="290" font-size="14" font-weight="bold" fill="#ea4335" text-anchor="end">$39K</text>
  
  <line x1="810" y1="320" x2="1090" y2="320" stroke="#e0e0e0"/>
  
  <text x="820" y="350" font-size="12" fill="#999">Status: ⚠️ Investigate</text>
  <text x="820" y="375" font-size="12" fill="#999">Lowest margin</text>
  <text x="820" y="400" font-size="12" fill="#999">Underperforming</text>
  <text x="820" y="425" font-size="12" fill="#999">High rent costs</text>
  <text x="820" y="450" font-size="12" fill="#999">Needs action plan</text>
  
  <!-- Bottom insight -->
  <rect x="100" y="560" width="1000" height="30" fill="#34a853" rx="4" opacity="0.1"/>
  <text x="600" y="582" font-size="14" font-weight="bold" fill="#34a853" text-anchor="middle">
    Without location-level visibility, you'd only see combined 31% margin — missing the problems at Location 3.
  </text>
</svg>