<svg width="1200" height="630" xmlns="http://www.w3.org/2000/svg">
  <defs>
    <linearGradient id="bg4" x1="0%" y1="0%" x2="100%" y2="100%">
      <stop offset="0%" style="stop-color:#1B0A3C;stop-opacity:1" />
      <stop offset="100%" style="stop-color:#2D1B69;stop-opacity:1" />
    </linearGradient>
  </defs>
  <rect width="1200" height="630" fill="url(#bg4)"/>
  <!-- Accent elements -->
  <rect x="0" y="620" width="1200" height="10" fill="#A855F7" opacity="0.3"/>
  <circle cx="1050" cy="150" r="180" fill="#A855F7" opacity="0.04"/>
  <circle cx="100" cy="550" r="120" fill="#A855F7" opacity="0.04"/>
  <!-- Shield / Tax protection illustration -->
  <g transform="translate(80, 120)">
    <!-- Shield shape -->
    <path d="M120,0 L240,50 L240,180 C240,260 120,340 120,340 C120,340 0,260 0,180 L0,50 Z" fill="#A855F7" opacity="0.12" stroke="#A855F7" stroke-width="2" opacity="0.3"/>
    <!-- Inner strategies -->
    <rect x="35" y="70" width="170" height="32" rx="6" fill="#A855F7" opacity="0.2"/>
    <text x="120" y="92" font-family="Arial, sans-serif" font-size="13" font-weight="bold" fill="#FFFFFF" text-anchor="middle" opacity="0.8">S-Corp Election</text>
    <rect x="35" y="115" width="170" height="32" rx="6" fill="#A855F7" opacity="0.2"/>
    <text x="120" y="137" font-family="Arial, sans-serif" font-size="13" font-weight="bold" fill="#FFFFFF" text-anchor="middle" opacity="0.8">Cash Balance Plan</text>
    <rect x="35" y="160" width="170" height="32" rx="6" fill="#A855F7" opacity="0.2"/>
    <text x="120" y="182" font-family="Arial, sans-serif" font-size="13" font-weight="bold" fill="#FFFFFF" text-anchor="middle" opacity="0.8">Augusta Rule</text>
    <rect x="35" y="205" width="170" height="32" rx="6" fill="#A855F7" opacity="0.2"/>
    <text x="120" y="227" font-family="Arial, sans-serif" font-size="13" font-weight="bold" fill="#FFFFFF" text-anchor="middle" opacity="0.8">Section 179</text>
    <!-- Savings callout -->
    <rect x="20" y="270" width="200" height="50" rx="10" fill="#A855F7" opacity="0.3"/>
    <text x="120" y="295" font-family="Arial, sans-serif" font-size="14" fill="#E9D5FF" text-anchor="middle">SAVE</text>
    <text x="120" y="315" font-family="Arial, sans-serif" font-size="18" font-weight="bold" fill="#A855F7" text-anchor="middle">$50K-$150K/yr</text>
  </g>
  <!-- Text -->
  <text x="400" y="220" font-family="Georgia, serif" font-size="50" font-weight="bold" fill="#FFFFFF">Tax Strategies</text>
  <text x="400" y="285" font-family="Georgia, serif" font-size="42" font-weight="bold" fill="#A855F7">for Concierge</text>
  <text x="400" y="340" font-family="Georgia, serif" font-size="42" font-weight="bold" fill="#A855F7">Physicians</text>
  <text x="400" y="400" font-family="Arial, sans-serif" font-size="24" fill="#B8A5D4">8 proven strategies to reduce</text>
  <text x="400" y="433" font-family="Arial, sans-serif" font-size="24" fill="#B8A5D4">your tax burden by six figures</text>
  <!-- Branding -->
  <text x="400" y="540" font-family="Arial, sans-serif" font-size="18" font-weight="600" fill="#A855F7">BENEFIQUE TAX &amp; ACCOUNTING</text>
  <text x="400" y="565" font-family="Arial, sans-serif" font-size="14" fill="#B8A5D4">Davie, FL | Broward County</text>
</svg>